<?xml version="1.0" encoding="UTF-8"?>
<svg version="1.1" xmlns="http://www.w3.org/2000/svg" width="535" height="535">
<path d="M0 0 C12.41257186 10.77667584 20.18948069 24.59518237 24.875 40.24609375 C25.06980957 40.89328369 25.26461914 41.54047363 25.46533203 42.20727539 C31.73257099 64.60092084 29.69515328 86.76559631 25.5625 109.24609375 C23.10581651 122.67346306 21.35014443 135.70344235 21.375 149.37109375 C21.36799072 150.38684982 21.36799072 150.38684982 21.36083984 151.42312622 C21.31463854 168.51734791 25.58556272 184.40331071 37.5625 196.99609375 C43.59334805 203.00122999 49.99175249 205.9694578 58.0625 208.68359375 C58.65716064 208.93906982 59.25182129 209.1945459 59.86450195 209.45776367 C67.11514887 212.35714197 74.74857466 212.42661585 82.45092773 212.7644043 C84.83209456 212.86920537 87.21170842 212.99239035 89.59179688 213.11914062 C107.80538015 214.04556213 125.59849796 213.77801372 143.7505188 211.97268677 C157.68868461 210.60072483 171.61043603 209.28735553 185.625 209.24609375 C187.15471436 209.2315918 187.15471436 209.2315918 188.71533203 209.21679688 C192.51431401 209.26203077 195.59004669 209.52962198 199.21484375 210.7109375 C201.401679 213.04571932 201.34518595 213.77077476 201.375 216.87109375 C201.271875 218.12921875 201.16875 219.38734375 201.0625 220.68359375 C202.19429688 220.96074219 203.32609375 221.23789063 204.4921875 221.5234375 C205.97398902 221.88919863 207.45575818 222.25509086 208.9375 222.62109375 C209.68386719 222.80349609 210.43023437 222.98589844 211.19921875 223.17382812 C216.8359375 224.5703125 216.8359375 224.5703125 219.0625 225.68359375 C219.11833607 227.28732974 219.15608517 228.89169358 219.1875 230.49609375 C219.22230469 231.83607422 219.22230469 231.83607422 219.2578125 233.203125 C218.98211908 238.11598179 218.01648275 242.862593 217.0625 247.68359375 C218.00456299 247.53212891 218.94662598 247.38066406 219.91723633 247.22460938 C223.46261801 246.6569234 227.00970565 246.10056908 230.55737305 245.54736328 C232.08324017 245.3078666 233.60864914 245.06542953 235.13354492 244.81982422 C257.98522473 241.14495612 257.98522473 241.14495612 263.0625 243.68359375 C264.86474921 248.70414513 263.50411688 252.12014085 261.46484375 256.76171875 C253.68980947 272.96151163 244.22304572 288.34241702 234.36328125 303.34765625 C227.64714228 313.59087236 221.95412471 323.66984437 217.1328125 334.9296875 C206.72850887 359.18502853 191.25795271 380.32427906 169.1875 395.18359375 C168.22336182 395.83424805 168.22336182 395.83424805 167.23974609 396.49804688 C164.20336483 398.48770297 161.60815869 399.93795264 158.0625 400.68359375 C160.65268197 407.64021416 163.71398263 414.07819784 167.4375 420.49609375 C167.89382813 421.31529297 168.35015625 422.13449219 168.8203125 422.97851562 C172.65905463 429.63700794 176.94311086 433.27802638 183.25 437.62109375 C187.97168266 441.1691268 189.64458807 444.34328692 190.6875 450.18359375 C190.17959359 460.80899593 182.4355279 470.31755338 175.03125 477.203125 C168.18752452 482.92123774 161.17270375 488.72547963 152.0625 489.68359375 C151.16402344 489.79058594 150.26554687 489.89757812 149.33984375 490.0078125 C141.24502759 490.76516468 133.1248125 490.81388909 125 490.87109375 C123.35753296 490.89067139 123.35753296 490.89067139 121.68188477 490.91064453 C120.64088623 490.91177246 119.5998877 490.91290039 118.52734375 490.9140625 C117.595271 490.91817139 116.66319824 490.92228027 115.70288086 490.92651367 C112.83521501 490.66268311 110.67085436 489.87462718 108.0625 488.68359375 C106.60127906 482.47340474 106.60127906 482.47340474 108.5703125 479.1015625 C111.64732476 476.11618541 114.64774102 475.2207718 118.6875 474.18359375 C128.35616204 471.43379079 139.16200108 468.18711778 144.375 458.93359375 C147.90048619 451.16605913 145.78624574 444.3337952 143.0625 436.68359375 C141.29294549 432.61947067 139.3489136 428.65179683 137.375 424.68359375 C136.36770412 422.64359729 135.36362054 420.60201046 134.36328125 418.55859375 C133.92153564 417.66914063 133.47979004 416.7796875 133.0246582 415.86328125 C132.0625 413.68359375 132.0625 413.68359375 132.0625 411.68359375 C130.78375 411.84601563 129.505 412.0084375 128.1875 412.17578125 C120.95618683 412.89738267 113.72384294 412.83336327 106.46435547 412.81396484 C104.03997727 412.80854338 101.61577927 412.81396981 99.19140625 412.8203125 C97.64843709 412.81965274 96.10546805 412.81837369 94.5625 412.81640625 C93.83861084 412.81843048 93.11472168 412.82045471 92.36889648 412.82254028 C87.29250547 412.79859649 87.29250547 412.79859649 85.0625 411.68359375 C84.85625 412.36421875 84.65 413.04484375 84.4375 413.74609375 C80.35983449 422.45747007 72.48816174 428.09656873 63.6875 431.55859375 C60.0625 432.68359375 60.0625 432.68359375 57.0625 432.68359375 C56.9078125 434.29234375 56.9078125 434.29234375 56.75 435.93359375 C55.90322821 442.70776807 53.96358374 449.24927458 52.234375 455.83984375 C48.80093447 467.19034935 48.80093447 467.19034935 51.5625 478.18359375 C54.13960885 483.37380459 54.8215153 486.11337862 53.0625 491.68359375 C49.48184039 495.18669394 46.43277854 496.4048573 41.5625 497.37109375 C39.90734375 497.71720703 39.90734375 497.71720703 38.21875 498.0703125 C25.476016 500.13022815 12.50959651 499.90098128 -0.35888672 499.92382812 C-3.69393128 499.93361262 -7.02837849 499.96475712 -10.36328125 499.99609375 C-12.5078089 500.00261864 -14.65234088 500.00787112 -16.796875 500.01171875 C-17.78145691 500.02406555 -18.76603882 500.03641235 -19.78045654 500.0491333 C-33.61620968 500.00488407 -33.61620968 500.00488407 -37.9375 495.68359375 C-38.30911277 490.37649893 -37.23933167 486.43928799 -33.875 482.30859375 C-27.534631 475.89183476 -20.68496845 475.49246364 -12.15258789 474.58569336 C-5.26018313 473.76667488 0.78205839 471.63858891 7.0625 468.68359375 C7.86816406 468.31363281 8.67382812 467.94367188 9.50390625 467.5625 C16.2450408 463.97467701 17.86562377 458.4059759 20.1159668 451.40722656 C21.186874 447.76458967 22.16639502 444.10728947 23.125 440.43359375 C23.48271484 439.180625 23.84042969 437.92765625 24.20898438 436.63671875 C25.08374148 433.27420273 25.83587286 430.15110636 26.0625 426.68359375 C24.13053329 423.34672251 24.13053329 423.34672251 21.0625 421.68359375 C12.4530945 413.52731486 6.97595945 404.27585805 1.68945312 393.76757812 C-2.45629894 385.83489409 -7.67029947 380.36642195 -14.5 374.68359375 C-17.58873341 372.07855461 -20.2004604 369.262069 -22.8125 366.18359375 C-24.45933058 364.24614601 -26.12508 362.33521991 -27.8125 360.43359375 C-60.2444473 323.75170276 -87.99154974 282.3328004 -86.1328125 231.63574219 C-84.75114702 210.75186844 -72.95158025 189.98935515 -63.25 171.80859375 C-40.24676636 132.15000377 -40.24676636 132.15000377 -37.6953125 88.1171875 C-40.08057534 82.03376504 -43.31540778 78.29608663 -49.2890625 75.63671875 C-56.40679123 73.03022654 -63.7627407 71.59156048 -71.20361328 70.25366211 C-76.03140938 69.36340596 -80.6664613 68.19358267 -85.3659668 66.76782227 C-92.6515161 64.66868977 -99.91459535 63.35021554 -107.40234375 62.2109375 C-108.73336132 62.00065702 -110.0642148 61.78933553 -111.39491272 61.57704163 C-116.25990877 60.80310717 -121.12769102 60.04737578 -125.99560547 59.29205322 C-130.14355883 58.64780019 -134.29019935 57.99605612 -138.43539619 57.33429146 C-140.35681125 57.0306334 -142.27995093 56.73795244 -144.20310974 56.44554138 C-155.72944736 54.61130652 -155.72944736 54.61130652 -160.9375 51.68359375 C-163.13075638 47.46579302 -163.15819833 44.50899259 -161.875 40.05859375 C-159.95449787 35.2037622 -157.76675587 32.06776981 -152.94140625 29.70703125 C-148.24091906 27.85691949 -143.41724004 26.53100033 -138.5390625 25.2421875 C-137.5689624 24.98493896 -136.5988623 24.72769043 -135.59936523 24.46264648 C-133.64634195 23.95110604 -131.69014182 23.4515155 -129.73071289 22.96508789 C-121.14695051 20.85279509 -121.14695051 20.85279509 -114.81469727 14.99414062 C-113.74091662 13.00679983 -112.79652813 10.99572129 -111.875 8.93359375 C-111.19128556 7.49491088 -110.50511082 6.0573945 -109.81640625 4.62109375 C-109.33131592 3.59628906 -109.33131592 3.59628906 -108.83642578 2.55078125 C-105.92332034 -3.50012325 -103.23538171 -8.40072027 -96.9375 -11.31640625 C-94.2467713 -11.66512469 -91.57599303 -11.8260733 -88.8671875 -11.9765625 C-85.76706828 -12.33617633 -83.28058717 -13.13035767 -80.375 -14.25390625 C-54.23492245 -24.33598385 -21.69553966 -17.10831784 0 0 Z " fill="#7A9C41" transform="translate(216.9375,27.31640625)"/>
<path d="M0 0 C17.75824955 1.64724011 35.50350134 2.90070883 53.32217407 3.6541748 C54.72109894 3.71529449 54.72109894 3.71529449 56.14828491 3.77764893 C62.30924966 4.04199246 68.46988164 4.25317854 74.63467407 4.4041748 C75.45943237 4.42471924 76.28419067 4.44526367 77.13394165 4.46643066 C89.63589211 4.73379277 101.88618081 3.93015327 114.32269287 2.69326782 C128.26085869 1.32130589 142.1826101 0.00793659 156.19717407 -0.0333252 C157.21698364 -0.04299316 158.23679321 -0.05266113 159.2875061 -0.06262207 C163.08648808 -0.01738818 166.16222076 0.25020303 169.78701782 1.43151855 C171.97385307 3.76630037 171.91736002 4.49135582 171.94717407 7.5916748 C171.79248657 9.4788623 171.79248657 9.4788623 171.63467407 11.4041748 C172.76647095 11.68132324 173.89826782 11.95847168 175.06436157 12.24401855 C176.54616309 12.60977969 178.02793225 12.97567191 179.50967407 13.3416748 C180.25604126 13.52407715 181.00240845 13.70647949 181.77139282 13.89440918 C187.40811157 15.29089355 187.40811157 15.29089355 189.63467407 16.4041748 C190.56461541 26.15822617 187.82511571 34.35179724 184.63467407 43.4041748 C184.26986938 44.46007812 183.9050647 45.51598145 183.52920532 46.60388184 C175.08239309 71.03881479 166.70814251 93.58365137 149.63467407 113.4041748 C149.01205688 114.15956543 148.3894397 114.91495605 147.74795532 115.6932373 C142.64058029 121.72263339 136.88435414 126.59209332 130.63467407 131.4041748 C129.7813147 132.07319824 128.92795532 132.74222168 128.04873657 133.43151855 C101.12371622 153.84763759 69.16582024 162.95155817 35.4828186 159.03796387 C4.26599577 154.15096898 -25.56256258 137.69020546 -44.36532593 111.9666748 C-59.83043843 90.07299899 -70.00391737 64.45447742 -66.06063843 37.30651855 C-63.71587077 24.88882046 -58.29799964 14.35714036 -48.36532593 6.4041748 C-32.62908335 -3.7994407 -17.8099119 -1.66707906 0 0 Z " fill="#FE6C75" transform="translate(246.36532592773438,236.5958251953125)"/>
<path d="M0 0 C3.53571429 0.53571429 3.53571429 0.53571429 5 2 C5.79477382 8.19722372 5.82058028 13.60146764 2.4375 19 C-2.40990432 25.2163472 -7.13146573 26.89148335 -14.625 28.4375 C-19.89140213 29.5763444 -22.8125474 30.41803689 -26 35 C-27.32048039 37.26250534 -28.58633418 39.54463357 -29.8203125 41.85546875 C-33.16798779 47.94114337 -37.45712376 51.38960171 -43.75 54.25 C-50.14532863 55.72584507 -56.3588146 55.09367585 -62.8125 54.25 C-66.45914401 53.89560784 -67.62522914 53.8006538 -70.9375 55.5625 C-74.09559655 59.29479592 -76.58258675 63.23289719 -78.9375 67.5 C-84.46177973 77.16748953 -92.43509313 82.7212358 -103 86 C-103.99 86 -104.98 86 -106 86 C-106.103125 87.0725 -106.20625 88.145 -106.3125 89.25 C-107.15927179 96.02417432 -109.09891626 102.56568083 -110.828125 109.15625 C-114.26156553 120.5067556 -114.26156553 120.5067556 -111.5 131.5 C-108.92289115 136.69021084 -108.2409847 139.42978487 -110 145 C-113.58065961 148.50310019 -116.62972146 149.72126355 -121.5 150.6875 C-122.6034375 150.91824219 -123.706875 151.14898438 -124.84375 151.38671875 C-137.586484 153.4466344 -150.55290349 153.21738753 -163.42138672 153.24023438 C-166.75643128 153.25001887 -170.09087849 153.28116337 -173.42578125 153.3125 C-175.5703089 153.31902489 -177.71484088 153.32427737 -179.859375 153.328125 C-180.84395691 153.3404718 -181.82853882 153.3528186 -182.84295654 153.36553955 C-196.67870968 153.32129032 -196.67870968 153.32129032 -201 149 C-201.37161277 143.69290518 -200.30183167 139.75569424 -196.9375 135.625 C-190.597131 129.20824101 -183.74746845 128.80886989 -175.21508789 127.90209961 C-168.32268313 127.08308113 -162.28044161 124.95499516 -156 122 C-154.79150391 121.44505859 -154.79150391 121.44505859 -153.55859375 120.87890625 C-147.83102724 117.83053292 -146.10273425 113.96645026 -144 108 C-142.31615415 101.91556732 -140.94776276 95.75828041 -139.55664062 89.6015625 C-139.26853516 88.38210938 -138.98042969 87.16265625 -138.68359375 85.90625 C-138.43150146 84.79572266 -138.17940918 83.68519531 -137.91967773 82.54101562 C-137.61618408 81.70248047 -137.31269043 80.86394531 -137 80 C-132.71253777 78.57084592 -130.51024989 80.39952872 -126.5703125 82.28515625 C-123.16478858 83.23228524 -122.08871313 82.69307238 -119 81 C-116.49189316 79.36129686 -114.08486864 77.60849685 -111.6875 75.8125 C-111.0174292 75.31129639 -110.3473584 74.81009277 -109.65698242 74.29370117 C-108.34088729 73.3026705 -107.0276975 72.30776698 -105.71777344 71.30859375 C-104.37623815 70.2866169 -103.02244328 69.2807275 -101.6640625 68.28125 C-96.27930534 64.00979707 -92.43802981 58.50491275 -88.47387695 52.94848633 C-79.73789272 40.80362521 -79.73789272 40.80362521 -73 38 C-70.125 37.76953125 -70.125 37.76953125 -67 37.8125 C-65.453125 37.82216797 -65.453125 37.82216797 -63.875 37.83203125 C-61.39455526 37.97694854 -59.37963423 38.35989305 -57 39 C-52.40224201 39.57574787 -49.12264068 39.74842712 -45.1875 37.125 C-43.22913679 34.32733827 -42.26446695 32.22344808 -41.125 29.0625 C-39.00976024 23.25425967 -35.50775091 19.75387545 -30 17 C-26.70473674 16.83375914 -23.41624779 16.70351989 -20.1171875 16.65820312 C-15.02393542 16.45466238 -12.00751085 15.39589946 -8 12 C-6.12637059 9.54553607 -6.12637059 9.54553607 -4.75 6.875 C-2.13245033 2.13245033 -2.13245033 2.13245033 0 0 Z " fill="#C0C932" transform="translate(380,374)"/>
<path d="M0 0 C0.61853811 6.06167348 0.61853811 6.06167348 -1.1484375 8.7421875 C-1.84839844 9.58136719 -1.84839844 9.58136719 -2.5625 10.4375 C-4.20471809 12.48217717 -4.96689177 13.50785058 -5.14453125 16.1484375 C-4.79521067 18.95312735 -4.26853597 21.46292806 -3 24 C-2.47450353 28.78977114 -2.43004494 32.7888455 -4.5 37.1875 C-8.96384128 42.20932144 -13.94027434 46.97013717 -20 50 C-20.66 50 -21.32 50 -22 50 C-22.23783203 51.2684375 -22.23783203 51.2684375 -22.48046875 52.5625 C-24.15611817 60.70930381 -25.7737375 68.18249167 -33 73 C-35.49809639 73.56301004 -37.99742869 73.94681019 -40.52734375 74.33984375 C-43.3157143 75.08429023 -44.88931302 76.04654253 -47 78 C-47.8042208 80.59855733 -47.8042208 80.59855733 -48 83 C-47.34 83 -46.68 83 -46 83 C-45.5153125 84.00417969 -45.030625 85.00835937 -44.53125 86.04296875 C-35.56283551 104.71167943 -35.56283551 104.71167943 -20.875 118.875 C-16.13045306 122.45579015 -14.42534286 125.61807997 -13.375 131.5 C-13.88290641 142.12540218 -21.6269721 151.63395963 -29.03125 158.51953125 C-35.87497548 164.23764399 -42.88979625 170.04188588 -52 171 C-53.34771484 171.16048828 -53.34771484 171.16048828 -54.72265625 171.32421875 C-62.81747241 172.08157093 -70.9376875 172.13029534 -79.0625 172.1875 C-80.15747803 172.20055176 -81.25245605 172.21360352 -82.38061523 172.22705078 C-83.42161377 172.22817871 -84.4626123 172.22930664 -85.53515625 172.23046875 C-86.467229 172.23457764 -87.39930176 172.23868652 -88.35961914 172.24291992 C-91.22728499 171.97908936 -93.39164564 171.19103343 -96 170 C-97.46122094 163.78981099 -97.46122094 163.78981099 -95.4921875 160.41796875 C-92.41517524 157.43259166 -89.41475898 156.53717805 -85.375 155.5 C-75.70633796 152.75019704 -64.90049892 149.50352403 -59.6875 140.25 C-56.16201381 132.48246538 -58.27625426 125.65020145 -61 118 C-62.76955451 113.93587692 -64.7135864 109.96820308 -66.6875 106 C-67.69479588 103.96000354 -68.69887946 101.91841671 -69.69921875 99.875 C-70.36183716 98.54082031 -70.36183716 98.54082031 -71.0378418 97.1796875 C-72 95 -72 95 -72 93 C-74.97 93 -77.94 93 -81 93 C-80.2678125 92.34128906 -79.535625 91.68257813 -78.78125 91.00390625 C-74.98290988 87.20690357 -72.83380538 82.52263163 -70.39453125 77.79492188 C-66.40394969 70.33883527 -60.9601741 66.66200627 -53 64 C-51.42384884 63.75948343 -49.83888922 63.56990744 -48.25 63.4375 C-44.37562169 63.1000106 -41.90174511 62.81639966 -39 60 C-38.10566605 57.5737871 -37.45064031 55.12719888 -36.78515625 52.62890625 C-34.81953779 46.04750714 -31.86028963 42.2339939 -25.9375 38.75 C-25.10089844 38.31171875 -24.26429688 37.8734375 -23.40234375 37.421875 C-20.79370124 35.87789797 -18.95595758 34.3132101 -17 32 C-16.68547728 28.85477278 -16.57958179 26.84083641 -18 24 C-18.51509835 17.92183952 -17.81014949 13.93208855 -14 9 C-6.11585366 0 -6.11585366 0 0 0 Z " fill="#C0C932" transform="translate(421,346)"/>
<path d="M0 0 C0.82540555 17.40230043 0.82540555 17.40230043 -4 24 C-7.66810536 27.030174 -11.73671685 28.91793149 -16 31 C-17.22144023 31.99192679 -17.22144023 31.99192679 -17.05004883 33.93017578 C-17.01935303 34.7601709 -16.98865723 35.59016602 -16.95703125 36.4453125 C-16.92512695 37.81429687 -16.92512695 37.81429687 -16.89257812 39.2109375 C-16.83982635 41.13058756 -16.7750192 43.04994999 -16.69726562 44.96875 C-16.57818962 51.26654734 -17.27609188 54.86868357 -21 60 C-21.9075 60.825 -22.815 61.65 -23.75 62.5 C-26.28984167 64.86071999 -26.28984167 64.86071999 -26.5 68.3125 C-26.14454464 72.08297363 -26.14454464 72.08297363 -24.5 75.6875 C-22.11529503 81.59193778 -21.66263927 88.29749204 -23.84375 94.3359375 C-26.43406981 98.90400149 -29.89801834 101.7847197 -34.23046875 104.67578125 C-36.27679312 106.05355143 -36.27679312 106.05355143 -38 109 C-38.16986115 111.66595635 -38.23306051 114.21330702 -38.1875 116.875 C-38.18685547 117.58269531 -38.18621094 118.29039062 -38.18554688 119.01953125 C-38.15380712 122.8071426 -37.85762217 126.3141887 -37 130 C-36.37681957 135.50476049 -37.39298134 138.61546265 -40.4296875 143.06640625 C-42.91541786 146.12719364 -45.71052252 148.81253891 -49 151 C-49.66 151 -50.32 151 -51 151 C-52.7894226 154.82740048 -53.20402892 157.68785799 -53.0546875 161.89453125 C-53.03019531 163.01537109 -53.00570312 164.13621094 -52.98046875 165.29101562 C-52.91049948 167.62721164 -52.83245383 169.96318058 -52.74609375 172.29882812 C-52.58541409 180.54547548 -53.54232928 185.89088407 -58.88671875 192.2421875 C-59.48097656 192.78101563 -60.07523438 193.31984375 -60.6875 193.875 C-63.51998743 196.48307194 -64.84824541 197.77361117 -65.3359375 201.71484375 C-64.91022415 205.87792431 -63.09895286 208.34104911 -60.625 211.5625 C-55.16583926 218.85559756 -53.29522538 223.91925014 -54 233 C-54.29653978 234.54916474 -54.62869382 236.0920359 -55 237.625 C-57.02841199 246.15626218 -56.18314908 250.64383381 -51.80078125 258.1953125 C-50.01598968 260.97509633 -48.10007556 263.6031574 -46.125 266.25 C-43.98953331 269.21042623 -42.53679473 271.30318074 -42.4375 275 C-43 278 -43 278 -45 280 C-48.23905787 280.7110127 -50.25826293 280.4194186 -53.1484375 278.78515625 C-59.15544797 274.42853603 -63.14902108 269.28527647 -67 263 C-67.65355469 262.02933594 -67.65355469 262.02933594 -68.3203125 261.0390625 C-72.70040258 253.77975237 -71.69191723 245.00162359 -70 237 C-69.16533476 231.50380817 -68.79579191 226.95029354 -71.796875 222.08984375 C-74.12280584 219.31511753 -76.53798181 216.65417571 -79 214 C-83.17694705 208.87796595 -85.69409944 204.97112023 -85.50390625 198.23828125 C-84.03923873 191.73243249 -79.7959307 187.16001271 -75.49609375 182.32421875 C-71.08417632 177.23153068 -70.54684836 173.68398668 -71 167 C-71.495 165.906875 -71.99 164.81375 -72.5 163.6875 C-74.42649357 158.95153663 -74.95951448 155.04151677 -74 150 C-71.05931924 143.9273747 -65.36133707 141.30032079 -59.48828125 138.5546875 C-56.49873398 136.6868071 -55.4241351 135.21017911 -54 132 C-53.60361918 129.24315486 -53.60361918 129.24315486 -53.75 126.4375 C-53.76546875 125.50808594 -53.7809375 124.57867187 -53.796875 123.62109375 C-53.97899459 121.27105063 -54.43030939 119.27431175 -55 117 C-55.48947939 110.76855087 -55.76250071 105.26750099 -52 100 C-48.21034537 96.29847688 -44.4571722 94.05225803 -39.63671875 91.89453125 C-37.81200195 91.09931912 -37.81200195 91.09931912 -37 89 C-36.35419642 83.99237554 -36.74501604 80.03387235 -39 75.5 C-41.19175219 70.95033391 -42.33941832 66.99399015 -41 62 C-38.99797657 58.97241688 -36.58078193 56.53647666 -34 54 C-30.36298507 49.59729771 -28.84215504 47.696637 -29.11328125 41.984375 C-29.14357422 40.98019531 -29.17386719 39.97601563 -29.20507812 38.94140625 C-29.27619267 36.82865774 -29.36706505 34.7164738 -29.47851562 32.60546875 C-29.68271364 23.96292588 -29.68271364 23.96292588 -26.3046875 20.37109375 C-23.64745015 18.21628017 -21.17875081 17.04837808 -17.8125 16.3125 C-14.28844276 15.51674514 -12.22786893 14.92786401 -10 12 C-9.11248454 9.83760919 -9.11248454 9.83760919 -8.5 7.5 C-6.99889319 2.13890425 -5.85849015 0 0 0 Z " fill="#BFC932" transform="translate(228,75)"/>
<path d="M0 0 C0 0.66 0 1.32 0 2 C-0.67804688 2.14695313 -1.35609375 2.29390625 -2.0546875 2.4453125 C-12.61692795 4.99078319 -22.83436305 10.0907777 -29.23046875 19.1640625 C-37.68418664 34.11415042 -40.65316417 48.26088355 -36.16796875 65.359375 C-26.2999722 96.11848129 -9.17684293 122.79412498 19.87817383 138.29443359 C43.03923514 150.10292188 71.80061622 154.87150562 97 147 C115.77294574 140.63103365 131.8366503 131.69760654 147 119 C148.15435547 118.07574219 148.15435547 118.07574219 149.33203125 117.1328125 C174.32857524 96.52422199 188.98357964 59.91719185 196 29 C196.11630014 26.96069048 196.17495341 24.91758454 196.1875 22.875 C196.20167969 21.82054687 196.21585938 20.76609375 196.23046875 19.6796875 C196.27657564 16.84729941 196.27657564 16.84729941 194 15 C195.58409994 15.11487748 197.16728963 15.24234508 198.75 15.375 C199.63171875 15.44460937 200.5134375 15.51421875 201.421875 15.5859375 C203.99066382 15.99850055 205.75841015 16.71160957 208 18 C208.92994134 27.75405137 206.19044164 35.94762243 203 45 C202.63519531 46.05590332 202.27039063 47.11180664 201.89453125 48.19970703 C193.44771902 72.63463999 185.07346843 95.17947656 168 115 C167.37738281 115.75539063 166.75476563 116.51078125 166.11328125 117.2890625 C161.00590622 123.31845858 155.24968006 128.18791852 149 133 C148.14664063 133.66902344 147.29328125 134.33804688 146.4140625 135.02734375 C119.48904215 155.44346278 87.53114617 164.54738337 53.84814453 160.63378906 C22.6313217 155.74679418 -7.19723665 139.28603065 -26 113.5625 C-41.4651125 91.66882419 -51.63859144 66.05030262 -47.6953125 38.90234375 C-45.35054484 26.48464566 -39.93267371 15.95296555 -30 8 C-20.05489283 1.55144348 -11.74770292 -0.34722275 0 0 Z " fill="#FDF39E" transform="translate(228,235)"/>
<path d="M0 0 C2.70033524 1.5925054 3.62649381 2.83978664 4.58349609 5.8125 C5.83613627 11.11035231 6.1611704 16.07923993 6.17602539 21.51391602 C6.2162331 32.19633572 7.42501581 40.25348815 12.50390625 49.66015625 C14.46831013 54.04544428 14.82290461 57.64707174 13.22265625 62.22265625 C9.3946364 68.29335439 4.37109875 71.81445062 -2 75 C-9.62308851 75.64052369 -17.04973841 74.40487726 -24.54296875 73.13671875 C-25.71080399 72.94406937 -26.87863922 72.75141998 -28.0818634 72.55293274 C-30.53563179 72.14582604 -32.9887269 71.73464235 -35.44116211 71.31958008 C-39.18469415 70.6879734 -42.93091249 70.07464169 -46.67773438 69.46289062 C-49.07049548 69.06359496 -51.46308018 68.66324046 -53.85546875 68.26171875 C-54.96915329 68.08033859 -56.08283783 67.89895844 -57.23027039 67.71208191 C-62.8711108 66.74374066 -67.95147151 65.75993162 -73 63 C-75.19325638 58.78219927 -75.22069833 55.82539884 -73.9375 51.375 C-72.01699787 46.52016845 -69.82925587 43.38417606 -65.00390625 41.0234375 C-60.30341906 39.17332574 -55.47974004 37.84740658 -50.6015625 36.55859375 C-49.6314624 36.30134521 -48.6613623 36.04409668 -47.66186523 35.77905273 C-45.70884195 35.26751229 -43.75264182 34.76792175 -41.79321289 34.28149414 C-33.20945051 32.16920134 -33.20945051 32.16920134 -26.87719727 26.31054688 C-25.80341662 24.32320608 -24.85902813 22.31212754 -23.9375 20.25 C-23.25378556 18.81131713 -22.56761082 17.37380075 -21.87890625 15.9375 C-21.5555127 15.25429688 -21.23211914 14.57109375 -20.89892578 13.8671875 C-16.45498911 4.63654446 -11.16385612 -2.02012635 0 0 Z " fill="#C0C932" transform="translate(129,16)"/>
<path d="M0 0 C0.93767308 3.05013197 1.27900976 4.44382822 -0.1796875 7.3515625 C-0.73914063 8.10179687 -1.29859375 8.85203125 -1.875 9.625 C-5.05706274 13.96148551 -6.38735045 17.19082702 -6.3671875 22.6953125 C-5.92010588 25.50146309 -4.86959673 27.45365509 -3.5 29.9375 C-0.91094397 34.77533613 0.20695771 38.56393852 -1 44 C-2.71873448 48.05176949 -4.91392151 51.61700796 -7.62890625 55.07421875 C-9.22935055 57.32213624 -9.65280735 59.07044015 -9.5703125 61.828125 C-8.77389187 64.86106932 -7.18663693 67.11420302 -5.5 69.75 C-1.85207766 75.67694887 -0.65653189 80.12764388 -2 87 C-2.87194726 89.41135858 -3.88899239 91.65298478 -5.03515625 93.9453125 C-7.74831427 99.72313079 -6.9906217 104.26232568 -5 110 C-5.72445312 110.06058594 -6.44890625 110.12117188 -7.1953125 110.18359375 C-12.17116533 110.61483433 -17.08680391 111.07047641 -22 112 C-25.80769626 106.44035838 -25.9184751 101.56873709 -25 95 C-23.88420407 92.29961889 -22.55222662 89.8438587 -21.1328125 87.29296875 C-19.40187027 83.78930293 -19.10062423 80.73586858 -20 77 C-20.79636117 75.25349758 -21.633664 73.52537003 -22.5 71.8125 C-25.79825115 65.04685661 -26.5998855 57.89711145 -24.23046875 50.64453125 C-22.96404089 48.03599258 -21.45740275 45.68146828 -19.84375 43.27734375 C-16.75751759 38.43857222 -16.25726308 34.57052693 -17 29 C-17.33 28.195625 -17.66 27.39125 -18 26.5625 C-19.86404137 21.78589399 -20.02156878 16.58584597 -18.125 11.78515625 C-14.12832912 4.93559859 -8.26393751 -1.95724836 0 0 Z " fill="#BFC932" transform="translate(232,125)"/>
<path d="M0 0 C3.52222359 3.3504078 4.26576863 6.29407884 4.5 11 C4.30977472 15.85074454 3.16943231 18.36447471 0 22 C-3.19491759 23.59745879 -6.53209389 23.50816842 -10 23 C-12.96858157 20.79259319 -13.82865791 19.51402627 -15 16 C-15.5068437 11.17252148 -15.8609538 6.62788277 -13.125 2.4375 C-9.28244633 -1.9701351 -5.38949339 -1.51250436 0 0 Z " fill="#31312F" transform="translate(169,35)"/>
<path d="M0 0 C2.85215646 4.27823469 2.61574826 7.97757144 2 13 C0.48559172 17.51338427 -1.00467589 20.33645059 -5 23 C-8.53950857 23.45185216 -10.33326715 23.42109443 -13.375 21.5 C-15.63442779 18.02395725 -15.74452004 14.96821508 -15 11 C-11.94021636 4.75804137 -7.07640156 0 0 0 Z " fill="#353031" transform="translate(282,282)"/>
<path d="M0 0 C3.50020422 0.3000175 4.94904191 0.95733741 7.6875 3.25 C12.00481234 8.38410116 12.51814141 12.47141822 12 19 C11 21.5 11 21.5 9 23 C4.00151286 23.71406959 4.00151286 23.71406959 1 23 C-2.82898755 19.36737079 -4.1420479 15.88180348 -4.3125 10.6875 C-4.28917819 5.92985126 -2.98044903 3.63242225 0 0 Z " fill="#343030" transform="translate(317,286)"/>
<path d="M0 0 C5.87837781 0.66368782 11.09303915 3.82145111 14.875 8.4375 C15.6268797 15.20441729 15.6268797 15.20441729 13.3125 19 C10.875 20.4375 10.875 20.4375 7.5 20.5 C2.05057101 18.90275357 -0.96224967 16.25914219 -4 11.5 C-5.20956717 8.20728938 -5.52014294 5.91475784 -5.125 2.4375 C-3.125 0.4375 -3.125 0.4375 0 0 Z " fill="#333030" transform="translate(351.125,268.5625)"/>
<path d="M0 0 C1.18142578 0.00966797 1.18142578 0.00966797 2.38671875 0.01953125 C4.3125 0.1875 4.3125 0.1875 5.3125 1.1875 C5.48782652 7.0233685 4.20707606 11.18012064 0.6640625 15.77734375 C-1.84993326 18.40032777 -3.51786869 19.16899477 -7.125 19.5625 C-10.6875 19.1875 -10.6875 19.1875 -13.125 17.5625 C-15.22853258 14.36513048 -15.42695225 12.95870647 -14.6875 9.1875 C-10.9718914 3.44628542 -7.05816393 -0.12833025 0 0 Z " fill="#353031" transform="translate(251.6875,255.8125)"/>
<path d="M0 0 C5.75 0.75 5.75 0.75 8 3 C8.32752234 5.71454956 8.1308425 8.25230759 8 11 C7 12 7 12 4.71484375 12.09765625 C3.34005859 12.08025391 3.34005859 12.08025391 1.9375 12.0625 C1.01839844 12.05347656 0.09929687 12.04445312 -0.84765625 12.03515625 C-1.55792969 12.02355469 -2.26820313 12.01195312 -3 12 C-2.690625 11.319375 -2.38125 10.63875 -2.0625 9.9375 C-0.86629351 6.63034088 -0.40994603 3.48454122 0 0 Z " fill="#FBF09A" transform="translate(410,237)"/>
</svg>
