<?xml version="1.0" encoding="UTF-8"?>
<svg version="1.1" xmlns="http://www.w3.org/2000/svg" width="534" height="534">
<path d="M0 0 C11.81426347 10.84454191 23.10539188 22.07170928 32.4140625 35.16796875 C32.83059082 35.75078613 33.24711914 36.33360352 33.67626953 36.93408203 C38.82803879 44.220071 43.46494116 51.77427122 47.8515625 59.54296875 C48.2647876 60.26774414 48.6780127 60.99251953 49.10375977 61.73925781 C54.11975629 70.82381941 55.9680931 79.45491826 57.1015625 89.73046875 C57.23111328 90.83455078 57.36066406 91.93863281 57.49414062 93.07617188 C57.80930456 95.77257444 58.11574252 98.46965978 58.4140625 101.16796875 C59.50291748 100.54752686 59.50291748 100.54752686 60.61376953 99.91455078 C63.32867335 98.37091794 66.04622909 96.83209002 68.765625 95.29638672 C70.51248403 94.30800695 72.25626873 93.31419996 74 92.3203125 C75.10859375 91.69511719 76.2171875 91.06992188 77.359375 90.42578125 C78.88328857 89.56170654 78.88328857 89.56170654 80.43798828 88.68017578 C86.35984031 85.67115597 91.80881357 84.21721322 98.4140625 85.16796875 C101.0390625 86.54296875 101.0390625 86.54296875 102.4140625 89.16796875 C104.62367498 103.91862501 89.69111328 121.78154985 81.58911133 132.73999023 C80.99509521 133.54122314 80.4010791 134.34245605 79.7890625 135.16796875 C74.82239608 141.86857996 69.89145524 148.58945257 65.1015625 155.41796875 C64.54452637 156.19140625 63.98749023 156.96484375 63.41357422 157.76171875 C59.80132175 162.96791317 57.85621863 166.97693189 58.72583008 173.51025391 C59.23471414 176.31265928 59.84210492 179.07882959 60.4765625 181.85546875 C60.70045654 182.88986084 60.92435059 183.92425293 61.1550293 184.98999023 C62.42049029 190.81753136 63.74967857 196.62976502 65.0859375 202.44140625 C72.1505161 233.52721287 72.1505161 233.52721287 66.8515625 244.16796875 C60.31676311 254.44999576 50.95508616 261.54420212 39.08203125 264.63671875 C24.13041715 267.61390692 6.01799938 267.06052772 -7.0859375 258.54296875 C-10.32708565 253.41115085 -10.71374152 247.12150617 -10.5859375 241.16796875 C-11.45992188 241.70164062 -12.33390625 242.2353125 -13.234375 242.78515625 C-28.02705356 251.77117177 -43.11969889 260.02606534 -58.5859375 267.79296875 C-59.53187271 268.26988663 -59.53187271 268.26988663 -60.49691772 268.75643921 C-62.29506717 269.66133579 -64.09668422 270.55933176 -65.8984375 271.45703125 C-66.94644531 271.97990723 -67.99445313 272.5027832 -69.07421875 273.04150391 C-71.5859375 274.16796875 -71.5859375 274.16796875 -73.5859375 274.16796875 C-73.44494629 274.86656006 -73.30395508 275.56515137 -73.15869141 276.28491211 C-62.97926422 327.04448822 -62.97926422 327.04448822 -70.734375 340.1015625 C-78.73063558 350.47821278 -92.03671942 355.3350547 -104.5859375 357.16796875 C-109.10465409 357.43062164 -113.62285016 357.44479675 -118.1484375 357.48046875 C-119.34791016 357.50947266 -120.54738281 357.53847656 -121.78320312 357.56835938 C-133.48536907 357.65045768 -144.95904449 355.63922194 -153.5859375 347.16796875 C-161.93443377 337.14977322 -159.73051516 317.51495356 -159.6484375 305.41796875 C-159.64392578 304.13664062 -159.63941406 302.8553125 -159.63476562 301.53515625 C-159.6231147 298.41270944 -159.60675775 295.29036557 -159.5859375 292.16796875 C-160.18752686 292.1831958 -160.78911621 292.19842285 -161.40893555 292.21411133 C-172.43056071 292.35788441 -183.40492636 291.55719579 -194.3984375 290.85546875 C-195.4563147 290.78894104 -196.51419189 290.72241333 -197.60412598 290.65386963 C-211.03274168 289.8047766 -224.44393447 288.85408119 -237.8359375 287.54296875 C-239.0938208 287.42010498 -240.3517041 287.29724121 -241.64770508 287.1706543 C-250.71810652 286.24034027 -250.71810652 286.24034027 -254.5859375 285.16796875 C-254.4415625 286.26753906 -254.2971875 287.36710937 -254.1484375 288.5 C-250.47517102 317.30493947 -250.47517102 317.30493947 -257.7734375 327.10546875 C-271.78955891 337.38395779 -291.14678967 337.76424687 -307.8359375 335.48046875 C-319.30996646 333.21399389 -331.07763483 328.85693799 -338.0859375 318.98046875 C-342.66328643 310.39793951 -341.24759095 300.69663943 -338.6394043 291.71582031 C-336.37737165 284.36679173 -333.96486349 277.0665856 -331.25 269.87109375 C-330.35314494 266.2203661 -330.48205501 262.92372046 -330.5859375 259.16796875 C-331.89304687 258.45833984 -331.89304687 258.45833984 -333.2265625 257.734375 C-345.51286013 250.95746437 -356.46227166 242.92350128 -366.5859375 233.16796875 C-367.33488281 232.46800781 -368.08382812 231.76804687 -368.85546875 231.046875 C-379.87715882 219.90937032 -386.62481946 204.1429272 -390.5859375 189.16796875 C-390.90304687 187.98976563 -391.22015625 186.8115625 -391.546875 185.59765625 C-395.43275735 168.52116408 -395.52029471 149.00871015 -390.5859375 132.16796875 C-390.09287109 130.46060547 -390.09287109 130.46060547 -389.58984375 128.71875 C-384.64933617 113.45275254 -376.3917131 100.86344144 -365.5859375 89.16796875 C-364.60367188 88.06388672 -364.60367188 88.06388672 -363.6015625 86.9375 C-346.28721484 68.40226885 -320.64194322 58.06756591 -295.53320312 57.04345703 C-288.88196624 56.92114705 -282.23562437 56.99456825 -275.5859375 57.16796875 C-275.48361816 56.61036865 -275.38129883 56.05276855 -275.27587891 55.47827148 C-274.17129031 49.96173021 -272.53238186 45.22446806 -269.9609375 40.23046875 C-269.60829834 39.53808105 -269.25565918 38.84569336 -268.89233398 38.13232422 C-265.78033958 32.20688784 -262.06373915 27.14613081 -257.5859375 22.16796875 C-256.8640625 21.33910156 -256.1421875 20.51023438 -255.3984375 19.65625 C-253.16444688 17.12361828 -250.88659382 14.64007779 -248.5859375 12.16796875 C-247.60947266 11.09289062 -247.60947266 11.09289062 -246.61328125 9.99609375 C-226.43293385 -11.31186459 -198.52891141 -25.78804802 -170.5859375 -33.83203125 C-169.50054687 -34.14914063 -168.41515625 -34.46625 -167.296875 -34.79296875 C-111.62786461 -48.74475547 -43.45287992 -38.73948532 0 0 Z " fill="#FE6B74" transform="translate(414.5859375,142.83203125)"/>
<path d="M0 0 C11.81426347 10.84454191 23.10539188 22.07170928 32.4140625 35.16796875 C32.83059082 35.75078613 33.24711914 36.33360352 33.67626953 36.93408203 C38.82803879 44.220071 43.46494116 51.77427122 47.8515625 59.54296875 C48.2647876 60.26774414 48.6780127 60.99251953 49.10375977 61.73925781 C61.80917388 84.750262 60.01507225 117.14978762 53.1953125 141.83984375 C51.82216233 146.37217544 50.1827518 150.77651534 48.4140625 155.16796875 C48.08100098 155.99603027 47.74793945 156.8240918 47.40478516 157.67724609 C35.73002994 186.13881119 16.97409602 206.04900541 -11.3984375 218.30078125 C-29.59075413 225.77055559 -48.98812124 230.51332856 -68.5859375 232.16796875 C-69.6584375 232.27753906 -70.7309375 232.38710938 -71.8359375 232.5 C-91.20537641 234.18137491 -111.62726054 234.92968296 -130.5859375 230.16796875 C-131.55015625 229.95140625 -132.514375 229.73484375 -133.5078125 229.51171875 C-144.71390566 226.65925867 -153.67061816 219.13166295 -159.7109375 209.41796875 C-160.69133225 207.68023203 -161.64999705 205.93004657 -162.5859375 204.16796875 C-163.21628906 202.98847656 -163.21628906 202.98847656 -163.859375 201.78515625 C-167.90291749 193.56929603 -170.25259566 184.7862434 -172.76806641 176.015625 C-173.61887546 173.05328567 -174.48176087 170.09468174 -175.34765625 167.13671875 C-175.64397949 166.12303223 -175.94030273 165.1093457 -176.24560547 164.06494141 C-176.84875226 162.00432578 -177.45325031 159.94410519 -178.05908203 157.88427734 C-179.34600307 153.49406234 -180.61911624 149.10801885 -181.75390625 144.67578125 C-189.27322733 115.92423619 -205.19867574 90.02452325 -230.96923828 74.63793945 C-245.36768906 66.26170802 -259.12787375 60.86368609 -275.5859375 58.16796875 C-272.76055622 34.00194162 -251.81025463 12.70877613 -233.44824219 -1.84082031 C-214.53890765 -16.43675478 -193.56295619 -27.21760454 -170.5859375 -33.83203125 C-169.50054687 -34.14914063 -168.41515625 -34.46625 -167.296875 -34.79296875 C-111.62786461 -48.74475547 -43.45287992 -38.73948532 0 0 Z " fill="#7A9C40" transform="translate(414.5859375,142.83203125)"/>
<path d="M0 0 C1.82580123 0.66076616 3.63653093 1.36274884 5.44604492 2.06689453 C11.33210522 4.32791265 16.69160468 4.41223733 22.92260742 4.38330078 C23.74760742 4.38716797 24.57260742 4.39103516 25.42260742 4.39501953 C30.23562786 4.38737982 34.78141906 3.99197858 39.54760742 3.25830078 C52.93260792 1.8249046 62.16601497 4.18843608 73.54760742 11.25830078 C74.3700293 11.76619141 75.19245117 12.27408203 76.03979492 12.79736328 C77.26477201 13.57429427 78.48664892 14.35617776 79.70288086 15.14672852 C86.36086543 19.15861361 93.10877073 19.79987498 100.67260742 20.50830078 C113.17925273 21.92840377 124.00082378 25.21723933 132.73901367 34.89501953 C139.23259176 43.38014856 146.92323352 53.97816679 145.54760742 65.25830078 C143.54760742 67.25830078 143.54760742 67.25830078 140.77416992 67.27783203 C136.51038233 65.93055774 134.55447038 63.36945301 131.92260742 59.94580078 C130.99448995 58.78178678 130.06483277 57.61899858 129.13354492 56.45751953 C128.47116821 55.62957886 128.47116821 55.62957886 127.79541016 54.78491211 C124.90767313 51.25194016 122.68686284 48.91830356 118.23510742 47.69580078 C117.3559668 47.45216797 116.47682617 47.20853516 115.57104492 46.95751953 C112.18466093 46.17436354 108.78485182 45.60063079 105.36010742 45.00830078 C97.67176731 43.53573564 91.28230548 40.62237018 84.32446289 37.12939453 C81.56663533 35.77738454 78.7527417 34.57493627 75.92260742 33.38330078 C75.0022168 32.99400391 74.08182617 32.60470703 73.13354492 32.20361328 C67.55683626 30.16499773 62.53834085 30.21270495 56.68823242 30.40673828 C54.91353168 30.44380358 53.13878878 30.47889228 51.36401367 30.51220703 C48.59899766 30.56714756 45.83630228 30.63190718 43.07250977 30.73144531 C27.42337902 31.27185102 16.69078656 28.13237835 2.92260742 20.82080078 C-7.67629734 16.15078527 -19.06307116 19.67346617 -29.44458008 23.01220703 C-40.89001485 26.67312269 -52.49891302 27.55811278 -64.20239258 24.75830078 C-82.24244502 20.65468446 -94.80858695 24.65202155 -110.75708008 33.03173828 C-118.06301038 36.35646598 -126.03633239 38.43928168 -133.81958008 40.34033203 C-137.25514418 41.07031761 -137.25514418 41.07031761 -139.45239258 42.25830078 C-135.8250769 28.88257421 -127.43942118 18.47920422 -118.45239258 8.25830078 C-118.12239258 8.91830078 -117.79239258 9.57830078 -117.45239258 10.25830078 C-115.68115355 9.82244615 -113.91042969 9.38449803 -112.13989258 8.94580078 C-111.0390332 8.67509766 -109.93817383 8.40439453 -108.80395508 8.12548828 C-106.74481304 7.59270328 -104.69437238 7.02261383 -102.66333008 6.39111328 C-92.98702242 3.39402684 -83.9820456 3.55826388 -74.16430664 5.77490234 C-63.24678256 7.72095003 -52.8360522 5.38044883 -42.26489258 2.82080078 C-40.84786589 2.49077269 -39.4305486 2.16198981 -38.01293945 1.83447266 C-12.62926863 -4.09507786 -12.62926863 -4.09507786 0 0 Z " fill="#C0C932" transform="translate(280.452392578125,150.74169921875)"/>
<path d="M0 0 C8.88353759 3.29019911 16.30103492 2.66959592 25.33984375 0.1328125 C43.68926592 -4.93777097 59.97201664 -1.07550373 76.77734375 7.1328125 C77.76734375 8.1228125 77.76734375 8.1228125 78.77734375 9.1328125 C78.71484375 11.5703125 78.71484375 11.5703125 77.77734375 14.1328125 C73.71907436 17.35122712 70.20159956 17.4653053 65.23046875 17.21484375 C63.73799911 17.17212205 62.24548294 17.13100182 60.75292969 17.09130859 C59.97977417 17.06639343 59.20661865 17.04147827 58.41003418 17.01580811 C44.54967709 16.60572786 33.50395248 17.0829714 20.77734375 23.1328125 C14.69743917 25.36039543 9.10164155 25.40148251 2.71484375 25.3203125 C1.74740234 25.31966797 0.77996094 25.31902344 -0.21679688 25.31835938 C-5.01627755 25.28879379 -9.49195321 24.98696721 -14.22265625 24.1328125 C-24.18157884 23.49401726 -33.4403333 24.1819027 -43.22265625 26.1328125 C-56.67550302 28.78471307 -71.07531841 29.63950383 -84.6953125 27.6171875 C-90.01162073 26.88715182 -95.30157155 27.0289703 -100.66015625 27.0703125 C-101.77326172 27.07482422 -102.88636719 27.07933594 -104.03320312 27.08398438 C-106.76307726 27.09570057 -109.49283799 27.11210551 -112.22265625 27.1328125 C-114.03545932 23.67463795 -115.84784726 20.21624601 -117.66015625 16.7578125 C-118.17642578 15.77296875 -118.69269531 14.788125 -119.22460938 13.7734375 C-119.71767578 12.83242187 -120.21074219 11.89140625 -120.71875 10.921875 C-121.17435303 10.05256348 -121.62995605 9.18325195 -122.09936523 8.28759766 C-122.81831852 6.90844494 -123.52710524 5.52391452 -124.22265625 4.1328125 C-107.42242556 -0.15738496 -93.55045475 -1.86179109 -76.39428711 1.04907227 C-61.1899368 3.54530888 -48.34168572 1.52092827 -33.6796875 -2.578125 C-22.1044207 -5.57509839 -10.97598266 -4.28236933 0 0 Z " fill="#BFC932" transform="translate(338.22265625,240.8671875)"/>
<path d="M0 0 C1 1 1 1 1 4.9375 C0.21881732 11.15729629 -3.03604298 15.31035793 -7 20 C-7.53109375 20.64066406 -8.0621875 21.28132813 -8.609375 21.94140625 C-14.16384606 27.63601304 -21.53045133 29.80629942 -28.85546875 32.421875 C-34.79606352 34.52328059 -34.79606352 34.52328059 -39.22265625 38.796875 C-39.49980469 39.44140625 -39.77695312 40.0859375 -40.0625 40.75 C-40.38476562 41.45125 -40.70703125 42.1525 -41.0390625 42.875 C-41.51472656 43.926875 -41.51472656 43.926875 -42 45 C-46.04249399 53.15071959 -50.62297109 56.10272371 -58.98828125 59.16796875 C-65.11372847 60.86021292 -70.85981911 61.04001622 -77.18359375 61 C-92.41810228 60.92651435 -104.21365094 61.31905792 -117.28955078 69.94335938 C-128.92676092 77.13231819 -143.94381862 75.59452672 -157 75 C-157.74926758 74.97196289 -158.49853516 74.94392578 -159.27050781 74.91503906 C-168.34298573 74.48259171 -168.34298573 74.48259171 -171.70703125 71.47265625 C-173.12426259 69.37892173 -174.04298413 67.33979077 -175 65 C-175.47179687 64.06542969 -175.94359375 63.13085938 -176.4296875 62.16796875 C-180.11481729 54.72799049 -180.11481729 54.72799049 -179.6328125 51.671875 C-179.42398438 51.12015625 -179.21515625 50.5684375 -179 50 C-177.865625 50.495 -176.73125 50.99 -175.5625 51.5 C-165.72409964 54.74838179 -154.0947991 54.36080364 -144.6875 50.0703125 C-137.57827737 47.23902326 -131.01933026 46.90335447 -123.41943359 47.02832031 C-108.29448895 47.1741732 -97.55012702 43.8864649 -84.51147461 36.42114258 C-73.86347473 30.39586725 -64.20103947 26.98134114 -51.98046875 25.8203125 C-48.10155402 24.75272129 -46.64025194 22.9993262 -44 20 C-32.20297926 7.5595054 -18.32287444 -2.4350661 0 0 Z " fill="#C0C932" transform="translate(427,282)"/>
<path d="M0 0 C11.3015698 10.37393043 22.18891658 21.08998078 31.19824219 33.54296875 C32.4334377 35.1938646 33.74062524 36.75551005 35.078125 38.32421875 C41.15891291 45.74250423 42.70997176 51.95065754 41.98046875 61.3203125 C41.11667685 67.18814023 39.66279415 70.84669737 35.4765625 75.16796875 C32.84917065 76.44185571 31.2950732 76.68507323 28.4140625 76.16796875 C25.72365811 73.30540751 25.04645732 71.35188853 25.04296875 67.46484375 C25.02556641 66.56636719 25.00816406 65.66789062 24.99023438 64.7421875 C24.9811955 62.87501461 24.97592245 61.0078193 24.97460938 59.140625 C24.80827865 51.09939496 22.45457832 46.03602662 17.9140625 39.54296875 C15.52249341 35.89798694 14.65612654 32.39776907 13.6640625 28.16796875 C11.62668584 20.78936139 9.05535339 17.0217646 2.4140625 13.16796875 C-1.53934523 11.3295752 -5.57576687 9.70364946 -9.62841797 8.09838867 C-16.75063426 5.24346519 -21.94594436 1.61521276 -27.50390625 -3.6484375 C-32.71461369 -8.46392162 -38.01164843 -11.20821185 -44.5859375 -13.83203125 C-45.85050781 -14.36183594 -45.85050781 -14.36183594 -47.140625 -14.90234375 C-53.09759178 -17.16713304 -59.2166607 -17.85994305 -65.5625 -17.93359375 C-77.94727752 -18.09885633 -87.50355968 -19.87623865 -98.77807617 -25.02807617 C-108.32569622 -29.27389829 -117.22073578 -28.15350157 -127.2109375 -26.33203125 C-135.16662029 -24.89168017 -142.82409419 -24.69749735 -150.8984375 -24.83203125 C-160.27266891 -24.95054832 -168.54599636 -24.5374151 -177.5859375 -21.83203125 C-179.49058301 -21.28020516 -181.39556389 -20.729536 -183.30078125 -20.1796875 C-186.47124508 -19.25937333 -189.64012486 -18.33448976 -192.8059082 -17.39819336 C-213.19544455 -11.3685336 -213.19544455 -11.3685336 -217.5859375 -12.83203125 C-152.91408349 -51.19669041 -58.06006453 -51.7622082 0 0 Z " fill="#BFC832" transform="translate(414.5859375,142.83203125)"/>
<path d="M0 0 C2.9375 0.6875 2.9375 0.6875 5.1875 2.8125 C8.67629784 8.54409645 9.4468207 14.12733109 9.9375 20.6875 C10.03804688 21.44933594 10.13859375 22.21117187 10.2421875 22.99609375 C11.24129128 35.16517783 2.17434806 46.65893714 -5.0625 55.6875 C-5.98482422 56.85732422 -5.98482422 56.85732422 -6.92578125 58.05078125 C-23.82593015 78.30996595 -50.7833919 88.17752704 -75.625 94.25 C-76.70193115 94.51385498 -77.7788623 94.77770996 -78.88842773 95.04956055 C-87.20737632 96.96880618 -87.20737632 96.96880618 -91.0625 95.6875 C-84.86343234 92.34110064 -78.7085742 89.78765121 -72 87.6484375 C-68.47586175 86.4955944 -65.05859178 85.16156847 -61.6328125 83.74609375 C-59.78341889 82.9844134 -57.92241138 82.2507128 -56.0546875 81.53515625 C-44.77066406 77.10921723 -39.25307876 72.3988214 -32.84985352 62.30175781 C-28.42105863 55.42858104 -23.08108694 50.63497362 -16.25 46.1875 C-12.41396325 43.45070632 -10.44162787 40.1538844 -9.0625 35.6875 C-8.43866414 29.5163591 -8.60360233 23.32840017 -8.66210938 17.1328125 C-8.5685493 6.43394253 -8.5685493 6.43394253 -5.71875 2.83203125 C-3.0625 0.6875 -3.0625 0.6875 0 0 Z " fill="#BFC733" transform="translate(449.0625,276.3125)"/>
<path d="M0 0 C6.29704096 3.5118113 10.95645351 8.93186054 13.25 15.8125 C14.19543383 23.92972477 12.84611115 30.03197339 8.25 36.8125 C3.99156198 41.18012874 -0.71634282 42.86066835 -6.75 43.125 C-11.70131348 42.94648965 -15.00869524 41.506148 -18.60546875 38.0078125 C-23.94318551 32.17484367 -26.03629741 27.91919406 -26.0625 19.875 C-26.07925781 18.69035156 -26.09601563 17.50570313 -26.11328125 16.28515625 C-25.49842497 10.40765916 -23.18455965 6.7237335 -18.6875 3 C-17.64916016 2.12408203 -17.64916016 2.12408203 -16.58984375 1.23046875 C-11.60080187 -2.61458901 -5.74892721 -1.82049362 0 0 Z " fill="#2D2B29" transform="translate(159.75,257.1875)"/>
<path d="M0 0 C5.14240782 3.62306005 8.80223998 7.90659169 10.75 13.9375 C11.61833704 21.25778319 11.38556579 27.97016946 6.75 33.9375 C1.94478 38.81869185 -1.51542175 42.07299872 -8.5 42.1875 C-14.09683311 42.10723251 -17.70903767 41.36212912 -21.87109375 37.390625 C-27.22540626 31.58690976 -28.69522102 26.2151552 -28.49609375 18.390625 C-27.81531116 11.60441126 -24.05483629 6.5062264 -19.25 1.9375 C-13.39370242 -2.18852784 -6.65251281 -2.17485996 0 0 Z " fill="#2D2B29" transform="translate(85.25,255.0625)"/>
<path d="M0 0 C2.959965 1.65207349 5.42904662 3.80332753 8 6 C9.93586203 7.58533557 11.87342612 9.16859456 13.8125 10.75 C14.72644531 11.50796875 15.64039062 12.2659375 16.58203125 13.046875 C20.41865964 16.31051891 20.41865964 16.31051891 25.25390625 16.890625 C29.43376015 15.89687454 32.4621868 14.16206517 35.9375 11.75 C36.54722656 11.34467041 37.15695313 10.93934082 37.78515625 10.52172852 C40.36624411 8.80523644 42.92177527 7.05400349 45.47265625 5.29296875 C48.5179101 3.25693198 50.61040183 2.07492273 54.25 1.375 C57 2 57 2 59.4375 4.125 C61 7 61 7 61.0625 10 C59.75408741 13.69434143 57.93332425 15.56235323 55 18 C54.319375 18.59683594 53.63875 19.19367188 52.9375 19.80859375 C44.94947269 26.5484918 34.26396692 35.15996965 23.3515625 35.35546875 C13.94335803 33.93329831 6.21533595 26.70491202 -1 21 C-1.89460938 20.30519531 -2.78921875 19.61039062 -3.7109375 18.89453125 C-7.04543364 16.13475203 -9.6018633 13.33131156 -10.3515625 8.94140625 C-10.47002041 6.00688081 -10.32801185 3.61743407 -8.9375 1 C-5.68599601 -0.67819561 -3.61859402 -0.53389092 0 0 Z " fill="#2D2C29" transform="translate(88,310)"/>
<path d="M0 0 C2.96568593 0.51899504 3.68441618 1.08396542 5.5 3.4375 C6.4256324 8.35752808 6.20631445 12.33388367 3.5 16.5625 C2.84 17.18125 2.18 17.8 1.5 18.4375 C-0.3125 18.3125 -0.3125 18.3125 -2.5 17.4375 C-5.39598684 13.09351975 -6.07424541 9.60570869 -5.5 4.4375 C-4.01298805 1.38521232 -3.36475848 0.58883273 0 0 Z " fill="#393132" transform="translate(86.5,446.5625)"/>
<path d="M0 0 C1.7325 0.1546875 1.7325 0.1546875 3.5 0.3125 C5.96328846 4.0074327 6.19466527 7.02334582 5.5 11.3125 C4.38342737 13.61846521 3.11597667 15.29252917 1.5 17.3125 C-0.875 17.0625 -0.875 17.0625 -3.5 16.3125 C-5.51093311 13.28926042 -5.77138579 10.76961968 -5.75 7.1875 C-5.75773437 5.88425781 -5.75773437 5.88425781 -5.765625 4.5546875 C-5.29452499 0.57804922 -3.81672035 0.3407786 0 0 Z " fill="#363131" transform="translate(417.5,382.6875)"/>
<path d="M0 0 C3.0625 0.375 3.0625 0.375 4.9375 1.9375 C6.51168596 5.34823625 6.51205307 7.65013169 6.0625 11.375 C4.0625 14.8125 4.0625 14.8125 2.0625 17.375 C-0.3125 17.0625 -0.3125 17.0625 -2.9375 16.375 C-5.17984009 13.01148987 -5.20848215 11.75189944 -5.1875 7.8125 C-5.19265625 6.84183594 -5.1978125 5.87117188 -5.203125 4.87109375 C-4.80075626 1.09001099 -3.6981405 0.47210304 0 0 Z " fill="#373131" transform="translate(122.9375,457.625)"/>
<path d="M0 0 C3.0625 0.375 3.0625 0.375 4.9375 1.9375 C6.51168596 5.34823625 6.51205307 7.65013169 6.0625 11.375 C4.0625 14.8125 4.0625 14.8125 2.0625 17.375 C-0.3125 17.0625 -0.3125 17.0625 -2.9375 16.375 C-5.17984009 13.01148987 -5.20848215 11.75189944 -5.1875 7.8125 C-5.19265625 6.84183594 -5.1978125 5.87117188 -5.203125 4.87109375 C-4.80075626 1.09001099 -3.6981405 0.47210304 0 0 Z " fill="#373131" transform="translate(453.9375,384.625)"/>
<path d="M0 0 C5.12843828 -0.65469425 5.12843828 -0.65469425 7.6640625 1.25 C9.77070705 4.00958117 9.46438603 6.4055214 9.37109375 9.76953125 C8.83627033 12.98410146 7.30032507 14.77156009 5 17 C2.625 16.8125 2.625 16.8125 0 16 C-2.60276895 11.90993451 -2.30210946 7.68269659 -2 3 C-1.34 2.01 -0.68 1.02 0 0 Z " fill="#353030" transform="translate(305,478)"/>
<path d="M0 0 C2.3431213 0.25561323 4.67843403 0.59270772 7 1 C8.60018083 4.20036165 8.36164998 7.51911895 8 11 C6.75 14.4375 6.75 14.4375 5 17 C2.8125 17.875 2.8125 17.875 1 18 C-1.94425661 13.90364298 -3.21273586 10.02461852 -3 5 C-1.5625 2 -1.5625 2 0 0 Z " fill="#353030" transform="translate(286,478)"/>
<path d="M0 0 C3.0625 0.3125 3.0625 0.3125 4.9375 1.3125 C6.75444704 4.54262807 6.69825352 7.75897246 6.0625 11.3125 C4.94231237 13.61591612 3.67807861 15.29302674 2.0625 17.3125 C-0.3125 17.125 -0.3125 17.125 -2.9375 16.3125 C-5.58432141 12.27924833 -5.56356482 6.99877934 -4.9375 2.3125 C-2.9375 0.3125 -2.9375 0.3125 0 0 Z " fill="#363131" transform="translate(270.9375,472.6875)"/>
<path d="M0 0 C3.5 -0.3125 3.5 -0.3125 7 0 C9.48018753 2.48018753 9.32361558 3.38515951 9.375 6.8125 C9.32005518 10.60918722 9.11495655 11.82038039 7 15.125 C6.34 15.74375 5.68 16.3625 5 17 C3.1875 16.875 3.1875 16.875 1 16 C-1.90370887 11.6444367 -2.48851636 8.17827339 -2 3 C-1.34 2.01 -0.68 1.02 0 0 Z " fill="#363131" transform="translate(431,387)"/>
<path d="M0 0 C3.06997072 -0.39191116 5.11365285 -0.47271848 7.875 1 C9.69194704 4.23012807 9.63575352 7.44647246 9 11 C7.87981237 13.30341612 6.61557861 14.98052674 5 17 C2.625 16.8125 2.625 16.8125 0 16 C-2.60276895 11.90993451 -2.30210946 7.68269659 -2 3 C-1.34 2.01 -0.68 1.02 0 0 Z " fill="#353030" transform="translate(100,456)"/>
<path d="M0 0 C0.66 0.33 1.32 0.66 2 1 C0.9375 2.9375 0.9375 2.9375 -1 5 C-4.6875 5.75 -4.6875 5.75 -8 6 C-5.38485683 3.87961365 -2.80362384 1.86908256 0 0 Z " fill="#B6BD37" transform="translate(205,125)"/>
</svg>
